<svg xmlns="http://www.w3.org/2000/svg" xmlns:xlink="http://www.w3.org/1999/xlink" width="1200px" height="230px" viewBox="0 0 1200 230">
    <g style="" id="a5ab41a3-3044-4af8-be32-2c1567dd9431">
<g style=""><path d="M-331.62876 -43.31196C-309.49476 -43.31196 -290.89476 -26.57196 -290.89476 6.53604L-290.89476 58.43004L-300.93876 58.43004L-300.93876 5.23404C-300.93876 -21.92196 -316.00476 -34.19796 -331.62876 -34.19796C-347.81076 -34.19796 -362.50476 -21.73596 -362.50476 5.23404L-362.50476 58.43004L-372.36276 58.43004L-372.36276 5.23404C-372.36276 -21.73596 -386.87076 -34.19796 -403.05276 -34.19796C-418.86276 -34.19796 -433.92876 -21.92196 -433.92876 5.23404L-433.92876 58.43004L-443.78676 58.43004L-443.78676 6.53604C-443.78676 -26.57196 -425.18676 -43.31196 -403.05276 -43.31196C-387.61476 -43.31196 -374.03676 -35.12796 -367.34076 -18.38796C-360.64476 -35.12796 -347.06676 -43.31196 -331.62876 -43.31196Z" fill="rgb(255,255,255)" fill-opacity="1.00" transform="matrix(1 0 0 1 707.625 108.332304) translate(0 0)"></path><path d="M-218.54076 50.99004C-206.45076 50.99004 -196.77876 47.27004 -188.03676 38.15604L-180.96876 44.10804C-190.82676 54.71004 -204.03276 60.10404 -218.54076 60.10404C-248.30076 60.10404 -270.43476 38.52804 -270.43476 8.39604C-270.43476 -21.73596 -248.11476 -43.31196 -218.54076 -43.31196C-204.21876 -43.31196 -191.01276 -38.28996 -180.96876 -27.68796L-188.03676 -21.73596C-196.77876 -30.47796 -206.82276 -34.19796 -218.72676 -34.19796C-241.04676 -34.19796 -257.78676 -19.50396 -260.20476 3.00204L-199.56876 3.00204L-199.56876 11.37204L-260.39076 11.37204C-258.90276 35.18004 -241.60476 50.99004 -218.54076 50.99004Z" fill="rgb(255,255,255)" fill-opacity="1.00" transform="matrix(1 0 0 1 707.625 108.332304) translate(0 0)"></path><path d="M-73.83276 -78.83796L-63.78876 -78.83796L-63.78876 7.65204C-63.78876 38.34204 -85.55076 60.10404 -115.68276 60.10404C-145.81476 60.10404 -167.76276 38.15604 -167.76276 8.21004C-167.76276 -21.54996 -145.81476 -43.31196 -116.24076 -43.31196C-98.38476 -43.31196 -82.38876 -34.75596 -73.83276 -19.13196ZM-115.86876 50.99004C-91.50276 50.99004 -73.83276 33.32004 -73.83276 8.39604C-73.83276 -16.71396 -91.31676 -34.19796 -115.68276 -34.19796C-140.04876 -34.19796 -157.71876 -16.71396 -157.71876 8.39604C-157.71876 33.32004 -140.04876 50.99004 -115.86876 50.99004Z" fill="rgb(255,255,255)" fill-opacity="1.00" transform="matrix(1 0 0 1 707.625 108.332304) translate(0 0)"></path><path d="M-31.23876 -55.77396C-35.14476 -55.77396 -38.49276 -58.93596 -38.49276 -62.84196C-38.49276 -66.74796 -35.14476 -69.90996 -31.23876 -69.90996C-27.33276 -69.90996 -24.17076 -66.74796 -24.17076 -62.84196C-24.17076 -58.93596 -27.33276 -55.77396 -31.23876 -55.77396ZM-36.26076 58.43004L-36.26076 -41.63796L-26.58876 -41.63796L-26.58876 58.43004Z" fill="rgb(255,255,255)" fill-opacity="1.00" transform="matrix(1 0 0 1 707.625 108.332304) translate(0 0)"></path><path d="M47.62524 -43.31196C77.75724 -43.31196 99.51924 -21.54996 99.51924 9.14004L99.51924 58.43004L89.47524 58.43004L89.47524 35.92404C80.91924 51.54804 64.92324 60.10404 47.06724 60.10404C17.49324 60.10404 -4.45476 38.52804 -4.45476 8.58204C-4.45476 -21.36396 17.49324 -43.31196 47.62524 -43.31196ZM47.62524 50.99004C71.99124 50.99004 89.47524 33.50604 89.47524 8.58204C89.47524 -16.34196 71.80524 -34.01196 47.43924 -34.01196C23.25924 -34.01196 5.58924 -16.34196 5.58924 8.39604C5.58924 33.50604 23.25924 50.99004 47.62524 50.99004Z" fill="rgb(255,255,255)" fill-opacity="1.00" transform="matrix(1 0 0 1 707.625 108.332304) translate(0 0)"></path><path d="M228.23124 -78.83796L228.23124 5.42004L228.23124 5.60604C228.23124 38.15604 205.16724 60.47604 172.80324 60.47604C140.43924 60.47604 117.37524 37.97004 117.37524 7.28004C117.37524 -23.40996 140.62524 -45.54396 170.94324 -45.54396C182.66124 -45.54396 195.30924 -41.63796 204.79524 -33.08196L204.79524 -78.83796ZM172.61724 39.64404C191.40324 39.64404 204.79524 26.81004 204.79524 7.28004C204.79524 -12.06396 191.40324 -24.52596 172.80324 -24.52596C154.20324 -24.52596 140.81124 -12.06396 140.81124 7.46604C140.81124 26.81004 154.01724 39.64404 172.61724 39.64404Z" fill="rgb(7,153,206)" fill-opacity="1.00" transform="matrix(1 0 0 1 707.625 108.332304) translate(0 0)"></path><path d="M301.70124 39.64404C310.81524 39.64404 318.44124 37.41204 325.69524 29.22804L341.87724 42.99204C331.64724 54.71004 316.95324 60.47604 301.32924 60.47604C270.26724 60.47604 246.08724 38.71404 246.08724 7.65204C246.08724 -23.59596 270.26724 -45.54396 301.32924 -45.54396C316.76724 -45.54396 331.46124 -39.77796 341.87724 -27.87396L325.69524 -14.10996C318.44124 -22.10796 310.62924 -24.71196 300.95724 -24.71196C286.82124 -24.71196 274.91724 -17.27196 270.82524 -3.69396L318.25524 -3.69396L318.25524 15.27804L270.08124 15.27804C273.24324 31.08804 285.89124 39.64404 301.70124 39.64404Z" fill="rgb(7,153,206)" fill-opacity="1.00" transform="matrix(1 0 0 1 707.625 108.332304) translate(0 0)"></path><path d="M443.80524 58.43004L417.20724 58.43004L388.74924 21.97404L360.29124 58.43004L334.25124 58.43004L375.17124 6.53604L335.92524 -43.31196L363.26724 -43.31196L389.12124 -9.08796L414.78924 -43.31196L441.57324 -43.31196L402.69924 6.16404Z" fill="rgb(7,153,206)" fill-opacity="1.00" transform="matrix(1 0 0 1 707.625 108.332304) translate(0 0)"></path></g></g>
<g id="e43290e8-295f-4bff-94fe-7caf79c0fa14">
<g style="">
		<g id="e43290e8-295f-4bff-94fe-7caf79c0fa14-child-0">
<path style="stroke: rgb(193,193,193); stroke-opacity: 1.00; stroke-width: 0; stroke-dasharray: none; stroke-linecap: butt; stroke-dashoffset: 0; stroke-linejoin: miter; stroke-miterlimit: 4; fill: rgb(237,235,235); fill-opacity: 1.00; fill-rule: nonzero; opacity: 1;" transform="matrix(0.214436 0 0 0.202301 137.549405 110.275851) matrix(1 0 0 1 -87.631283 73.218961)  translate(-390.901461, -474.532249)" d="M 565.00 781.31 C 554.52 777.20 545.14 772.92 536.51 768.32 C 509.19 753.74 489.78 738.94 467.09 715.41 C 431.55 678.55 408.40 635.81 397.48 586.93 C 391.38 559.59 390.84 552.58 389.99 489.00 C 389.62 461.55 388.99 437.08 388.48 429.65 C 388.58 429.66 388.70 429.60 388.83 429.45 C 390.39 427.67 392.91 416.52 393.48 408.90 C 394.15 400.11 399.57 372.22 400.94 370.58 C 401.45 369.96 402.39 366.32 403.04 362.48 C 403.69 358.64 405.75 351.39 407.61 346.36 C 409.48 341.34 411.00 336.84 411.00 336.36 C 410.98 334.56 420.16 312.32 422.48 308.50 C 423.82 306.30 426.01 302.21 427.33 299.42 C 433.92 285.52 447.97 265.78 463.14 249.11 C 468.84 242.85 474.62 236.16 476.00 234.25 L 478.50 230.77 L 477.52 229.73 C 477.78 229.90 477.98 230.00 478.11 230.00 C 478.65 230.00 482.33 227.18 486.29 223.73 C 515.32 198.48 543.90 180.94 575.40 169.07 C 608.19 156.72 632.08 152.19 669.00 151.34 C 694.37 150.76 709.19 151.87 726.50 155.65 C 730.35 156.49 735.30 157.56 737.50 158.03 C 743.45 159.30 760.44 164.41 769.14 167.54 C 773.35 169.06 777.51 170.02 778.39 169.68 C 778.93 169.47 779.29 168.33 779.53 163.39 C 779.44 167.17 779.34 169.29 779.24 169.35 C 778.83 169.61 778.81 174.47 779.21 180.16 C 780.14 193.47 778.96 420.34 777.96 421.00 C 777.54 421.27 777.88 425.33 778.70 430.00 C 778.81 430.60 778.91 431.34 779.00 432.22 C 778.86 431.19 778.70 430.17 778.52 429.11 C 772.83 395.22 745.71 363.34 711.70 350.54 C 697.94 345.36 687.05 343.71 670.50 344.30 C 639.89 345.38 618.16 354.64 597.44 375.42 C 580.54 392.37 571.72 409.26 567.01 433.71 C 565.23 442.92 565.00 448.19 565.00 480.12 C 565.00 515.09 565.07 516.42 567.46 525.85 C 569.26 532.92 572.46 541.16 576.30 548.91 C 572.62 541.58 569.53 533.99 568.05 528.22 C 567.01 524.15 565.90 520.57 565.58 520.25 L 565.58 520.25 C 565.26 520.25 565.00 578.84 565.00 650.73 L 565.00 781.31 Z M 154.45 797.06 C 154.74 797.35 155.38 797.57 156.25 797.71 C 142.44 797.88 115.63 797.92 86.00 797.80 L 10.50 797.50 L 7.25 795.18 C 5.46 793.90 3.49 791.91 2.87 790.75 C 2.04 789.20 1.78 742.00 1.91 613.57 C 1.98 536.47 2.02 469.36 2.01 444.48 C 2.10 444.41 2.18 444.34 2.25 444.35 C 3.22 444.43 3.19 456.64 3.36 632.70 C 3.47 751.37 3.76 783.16 4.75 784.15 C 5.44 784.84 6.00 786.12 6.00 787.00 C 6.00 787.89 7.60 790.16 9.55 792.05 L 13.11 795.50 L 83.30 795.81 C 125.15 796.00 153.88 796.50 154.45 797.06 Z M 2.40 425.25 C 2.56 422.85 2.75 420.25 2.96 417.74 C 4.07 404.78 6.34 390.49 9.23 377.11 C 8.92 379.00 8.85 380.41 9.19 380.62 C 10.25 381.27 9.18 385.21 7.69 386.17 C 7.12 386.53 6.60 390.36 6.55 394.67 C 6.49 398.98 6.11 403.04 5.70 403.69 C 5.29 404.35 4.80 409.01 4.61 414.05 C 4.40 419.80 3.82 423.49 3.06 423.96 C 2.78 424.13 2.56 424.57 2.40 425.25 Z M 10.63 370.94 C 12.78 361.82 15.19 353.32 17.70 346.18 C 17.05 348.34 16.63 350.32 16.46 352.00 C 15.86 358.14 14.26 364.22 13.05 364.97 C 12.42 365.36 11.46 367.96 10.63 370.94 Z M 378.05 401.23 C 371.95 390.01 364.99 380.63 356.86 372.78 C 362.45 377.99 367.34 383.68 371.23 389.64 C 373.64 393.32 375.95 397.28 378.05 401.23 Z M 779.92 461.73 C 779.96 474.99 779.74 489.96 779.30 502.23 C 779.45 496.29 779.58 488.87 779.71 479.49 C 779.80 472.51 779.88 466.67 779.92 461.73 Z M 614.91 796.33 C 605.27 794.57 597.94 792.68 589.00 789.80 C 584.70 788.42 580.57 787.03 576.59 785.62 L 583.25 787.82 C 596.18 792.10 604.22 794.36 614.91 796.33 Z M 308.57 346.42 C 302.02 345.09 294.88 344.58 285.50 344.56 C 297.69 344.59 302.17 344.91 308.57 346.42 Z M 378.35 167.42 C 394.50 173.31 410.22 180.68 425.03 189.31 C 409.71 180.51 394.13 173.21 378.35 167.42 Z M 2.01 438.08 C 2.01 435.82 2.00 434.51 2.00 434.24 C 1.98 433.54 2.01 432.38 2.08 430.92 C 2.08 431.14 2.09 431.37 2.10 431.60 C 2.17 433.71 2.13 436.07 2.01 438.08 Z M 693.39 606.98 C 693.15 607.02 692.91 607.07 692.67 607.12 C 685.12 608.57 676.89 609.07 668.59 608.72 C 677.05 609.05 685.51 608.50 693.39 606.98 Z M 176.83 790.05 L 176.83 790.38 L 175.12 792.08 L 176.83 790.05 Z M 387.66 425.10 C 387.14 423.03 386.66 421.24 386.17 419.60 C 386.85 421.65 387.36 423.50 387.66 425.10 Z M 171.19 795.58 C 169.65 796.58 167.98 797.17 165.94 797.46 C 165.90 797.47 165.86 797.47 165.80 797.48 C 166.65 797.34 167.46 797.17 168.19 796.97 C 169.10 796.71 170.17 796.21 171.19 795.58 Z M 777.59 525.78 C 777.57 525.86 777.55 525.93 777.53 526.00 C 771.89 548.57 759.63 568.43 742.97 583.04 C 759.63 568.43 771.89 548.56 777.53 526.00 C 777.55 525.93 777.57 525.86 777.59 525.78 Z M 445.05 202.13 C 447.87 204.11 450.63 206.13 453.35 208.21 C 450.66 206.16 447.87 204.12 445.05 202.13 Z" stroke-linecap="round"></path>
</g>
		<g id="e43290e8-295f-4bff-94fe-7caf79c0fa14-child-1">
<path style="stroke: rgb(193,193,193); stroke-opacity: 1.00; stroke-width: 0; stroke-dasharray: none; stroke-linecap: butt; stroke-dashoffset: 0; stroke-linejoin: miter; stroke-miterlimit: 4; fill: rgb(75,106,182); fill-opacity: 1.00; fill-rule: nonzero; opacity: 1;" transform="matrix(0.214436 0 0 0.202301 137.549405 110.275851) matrix(1 0 0 1 -88.066745 73.262013)  translate(-390.466, -474.575302)" d="M 154.45 797.06 C 153.88 796.50 125.15 796.00 83.30 795.81 L 13.11 795.50 L 9.55 792.05 C 7.60 790.16 6.00 787.89 6.00 787.00 C 6.00 786.12 5.44 784.84 4.75 784.15 C 3.76 783.16 3.47 751.37 3.36 632.70 C 3.19 456.64 3.22 444.43 2.25 444.35 C 2.15 444.34 2.03 444.48 1.89 444.57 C 1.11 445.05 1.02 444.25 1.57 441.88 C 1.99 440.02 2.23 435.40 2.10 431.60 C 1.94 427.05 2.27 424.45 3.06 423.96 C 3.82 423.49 4.40 419.80 4.61 414.05 C 4.80 409.01 5.29 404.35 5.70 403.69 C 6.11 403.04 6.49 398.98 6.55 394.67 C 6.60 390.36 7.12 386.53 7.69 386.17 C 9.18 385.21 10.25 381.27 9.19 380.62 C 8.06 379.92 11.50 365.92 13.05 364.97 C 14.26 364.22 15.86 358.14 16.46 352.00 C 16.92 347.33 19.37 340.39 23.01 333.47 C 24.66 330.35 26.00 327.06 26.01 326.15 C 26.01 323.86 33.78 308.02 41.17 295.21 C 54.77 271.63 71.62 250.14 90.70 232.02 C 126.49 198.04 162.15 176.73 206.79 162.64 C 219.86 158.52 242.58 153.62 244.76 154.46 C 245.58 154.78 246.81 154.58 247.48 154.01 C 251.99 150.28 302.39 150.24 326.47 153.95 C 360.70 159.23 394.33 171.43 426.78 190.32 C 443.98 200.33 464.19 215.67 474.50 226.55 L 478.50 230.77 L 476.00 234.25 C 474.62 236.16 468.84 242.85 463.14 249.11 C 447.97 265.78 433.92 285.52 427.33 299.42 C 426.01 302.21 423.82 306.30 422.48 308.50 C 420.16 312.32 410.98 334.56 411.00 336.36 C 411.00 336.84 409.48 341.34 407.61 346.36 C 405.75 351.39 403.69 358.64 403.04 362.48 C 402.39 366.32 401.45 369.96 400.94 370.58 C 399.57 372.22 394.15 400.11 393.48 408.90 C 392.91 416.52 390.39 427.67 388.83 429.45 C 388.36 429.99 388.00 429.42 388.00 428.10 C 388.00 421.19 380.29 403.50 371.23 389.64 C 358.30 369.85 334.40 353.03 310.50 346.90 C 302.97 344.97 298.88 344.59 285.50 344.56 C 268.82 344.53 261.63 345.75 247.23 351.05 C 213.46 363.47 188.74 392.01 180.57 428.00 C 177.19 442.90 177.03 451.37 176.93 620.78 L 176.83 790.05 L 174.35 793.00 C 172.99 794.62 170.21 796.40 168.19 796.97 C 163.57 798.25 155.71 798.30 154.45 797.06 Z M 778.96 171.06 C 778.87 173.16 778.98 176.95 779.28 181.17 C 779.73 187.40 779.85 228.50 779.54 272.50 C 779.23 316.50 779.09 370.95 779.22 393.50 C 779.32 410.30 779.39 425.21 779.43 438.39 C 779.25 434.62 779.00 431.71 778.70 430.00 C 777.88 425.33 777.54 421.27 777.96 421.00 C 778.96 420.34 780.14 193.47 779.21 180.16 C 778.95 176.41 778.87 173.01 778.96 171.06 Z M 779.01 509.31 C 778.78 517.09 778.47 521.64 778.06 523.50 C 777.97 523.92 777.88 524.34 777.78 524.76 C 778.26 521.84 778.68 516.31 779.01 509.31 Z" stroke-linecap="round"></path>
</g>
		<g id="e43290e8-295f-4bff-94fe-7caf79c0fa14-child-2">
<path style="stroke: rgb(193,193,193); stroke-opacity: 1.00; stroke-width: 0; stroke-dasharray: none; stroke-linecap: butt; stroke-dashoffset: 0; stroke-linejoin: miter; stroke-miterlimit: 4; fill: rgb(99,180,223); fill-opacity: 1.00; fill-rule: nonzero; opacity: 1;" transform="matrix(0.214436 0 0 0.202301 137.549405 110.275851) matrix(1 0 0 1 281.890311 0)  translate(-760.423056, -401.313288)" d="M 632.50 799.07 C 610.71 796.04 602.25 794.11 583.25 787.82 L 565.00 781.78 L 565.00 650.73 C 565.00 578.64 565.26 519.93 565.58 520.25 C 565.90 520.57 567.01 524.15 568.05 528.22 C 570.82 539.04 579.25 556.25 586.65 566.20 C 593.27 575.09 605.31 587.03 610.28 589.63 C 611.81 590.43 615.79 592.85 619.13 595.01 C 637.11 606.63 668.40 611.78 692.67 607.12 C 698.82 605.94 706.92 603.82 710.67 602.42 C 744.36 589.83 770.20 559.57 778.06 523.50 C 779.43 517.26 779.75 480.94 779.22 393.50 C 779.09 370.95 779.23 316.50 779.54 272.50 C 779.85 228.50 779.73 187.40 779.28 181.17 C 778.83 174.93 778.81 169.62 779.23 169.36 C 779.65 169.10 780.00 132.88 780.00 88.88 C 780.00 35.91 780.35 8.22 781.03 6.94 C 783.73 1.90 782.02 2.00 868.13 2.00 C 952.69 2.00 954.49 2.09 955.57 6.46 C 955.85 7.58 955.93 128.20 955.75 274.50 C 955.45 521.54 955.30 541.50 953.66 554.50 C 951.16 574.36 947.90 589.16 942.09 607.05 C 925.75 657.42 898.29 698.87 857.39 734.90 C 825.03 763.41 789.75 781.51 742.00 794.10 C 740.08 794.60 734.67 795.68 730.00 796.48 C 725.33 797.29 719.25 798.44 716.50 799.03 C 713.73 799.63 696.80 800.29 678.50 800.50 C 650.62 800.82 643.48 800.60 632.50 799.07 Z" stroke-linecap="round"></path>
</g>
</g>
</g>

  </svg>