<svg xmlns="http://www.w3.org/2000/svg" viewBox="0 0 128 128" role="img" aria-labelledby="title desc">
  <title id="title">MediaDex mark</title>
  <desc id="desc">Film strip and open book with play symbol</desc>
  <defs>
    <linearGradient id="filmGrad" x1="0" y1="0" x2="1" y2="1">
      <stop offset="0%" stop-color="#5dc8eb"/>
      <stop offset="100%" stop-color="#2ea4d2"/>
    </linearGradient>
    <linearGradient id="bookGrad" x1="0" y1="0" x2="0" y2="1">
      <stop offset="0%" stop-color="#66d9ff"/>
      <stop offset="100%" stop-color="#3fb6df"/>
    </linearGradient>
    <linearGradient id="playGrad" x1="0" y1="0" x2="1" y2="1">
      <stop offset="0%" stop-color="#2ea4d2"/>
      <stop offset="100%" stop-color="#197ca7"/>
    </linearGradient>
  </defs>

  <rect x="6" y="10" width="22" height="108" rx="10" fill="url(#filmGrad)" opacity="0.95"/>
  <rect x="100" y="10" width="22" height="108" rx="10" fill="url(#filmGrad)" opacity="0.95"/>

  <g fill="#0f1720" opacity="0.95">
    <rect x="11" y="18" width="12" height="10" rx="2"/>
    <rect x="11" y="34" width="12" height="10" rx="2"/>
    <rect x="11" y="50" width="12" height="10" rx="2"/>
    <rect x="11" y="66" width="12" height="10" rx="2"/>
    <rect x="11" y="82" width="12" height="10" rx="2"/>
    <rect x="11" y="98" width="12" height="10" rx="2"/>

    <rect x="105" y="18" width="12" height="10" rx="2"/>
    <rect x="105" y="34" width="12" height="10" rx="2"/>
    <rect x="105" y="50" width="12" height="10" rx="2"/>
    <rect x="105" y="66" width="12" height="10" rx="2"/>
    <rect x="105" y="82" width="12" height="10" rx="2"/>
    <rect x="105" y="98" width="12" height="10" rx="2"/>
  </g>

  <path d="M32 26c14 0 24 5 32 17v57c-8-9-18-13-32-13V26z" fill="url(#bookGrad)"/>
  <path d="M96 26c-14 0-24 5-32 17v57c8-9 18-13 32-13V26z" fill="url(#bookGrad)"/>
  <path d="M64 43v57" stroke="#1f86b3" stroke-width="2.4" stroke-linecap="round" opacity="0.9"/>

  <rect x="18" y="96" width="92" height="20" rx="10" fill="none" stroke="url(#filmGrad)" stroke-width="5"/>

  <circle cx="64" cy="64" r="16" fill="#dff6ff" opacity="0.18"/>
  <path d="M58 54v20l17-10-17-10z" fill="url(#playGrad)"/>
</svg>
